<svg width="18" height="18" viewBox="0 0 18 18" fill="none" xmlns="http://www.w3.org/2000/svg">
<path d="M10.6521 15.2219L5.02713 9.59692C4.94847 9.51854 4.88606 9.42539 4.84347 9.32283C4.80089 9.22027 4.77896 9.11032 4.77896 8.99927C4.77896 8.88822 4.80089 8.77826 4.84347 8.6757C4.88606 8.57314 4.94847 8.48 5.02713 8.40161L10.6521 2.77661C10.8106 2.6181 11.0256 2.52905 11.2498 2.52905C11.474 2.52905 11.6889 2.6181 11.8474 2.77661C12.006 2.93512 12.095 3.1501 12.095 3.37427C12.095 3.59843 12.006 3.81341 11.8474 3.97192L6.8194 8.99997L11.8481 14.028C12.0067 14.1865 12.0957 14.4015 12.0957 14.6257C12.0957 14.8498 12.0067 15.0648 11.8481 15.2233C11.6896 15.3818 11.4747 15.4709 11.2505 15.4709C11.0263 15.4709 10.8113 15.3818 10.6528 15.2233L10.6521 15.2219Z" fill="#3D3D3D"/>
</svg>
