<svg width="16" height="16" viewBox="0 0 16 16" fill="none" xmlns="http://www.w3.org/2000/svg">
<path d="M7.99905 5.00003C7.40571 5.00003 6.82569 5.17598 6.33234 5.50562C5.83899 5.83526 5.45448 6.3038 5.22741 6.85198C5.00035 7.40016 4.94094 8.00336 5.0567 8.5853C5.17245 9.16724 5.45817 9.70179 5.87773 10.1213C6.29729 10.5409 6.83184 10.8266 7.41378 10.9424C7.99572 11.0581 8.59892 10.9987 9.1471 10.7717C9.69528 10.5446 10.1638 10.1601 10.4935 9.66674C10.8231 9.17339 10.9991 8.59337 10.9991 8.00003C10.9982 7.20463 10.6819 6.44205 10.1195 5.87962C9.55703 5.31719 8.79445 5.00086 7.99905 5.00003ZM7.99905 10C7.60349 10 7.21681 9.88273 6.88791 9.66297C6.55901 9.4432 6.30267 9.13085 6.15129 8.7654C5.99992 8.39994 5.96031 7.99781 6.03748 7.60985C6.11465 7.22189 6.30513 6.86552 6.58484 6.58581C6.86454 6.30611 7.22091 6.11563 7.60887 6.03846C7.99683 5.96129 8.39897 6.00089 8.76442 6.15227C9.12987 6.30364 9.44223 6.55999 9.66199 6.88889C9.88175 7.21779 9.99905 7.60447 9.99905 8.00003C9.99905 8.53046 9.78834 9.03917 9.41327 9.41424C9.03819 9.78931 8.52949 10 7.99905 10ZM13.4991 8.13503C13.5016 8.04503 13.5016 7.95503 13.4991 7.86503L14.4316 6.70003C14.4804 6.63886 14.5143 6.56706 14.5304 6.49042C14.5464 6.41378 14.5443 6.33443 14.5241 6.25878C14.3712 5.68415 14.1425 5.13243 13.8441 4.61815C13.805 4.55085 13.7507 4.4936 13.6856 4.45096C13.6205 4.40832 13.5464 4.38146 13.4691 4.37253L11.9866 4.20753C11.9249 4.14253 11.8624 4.08003 11.7991 4.02003L11.6241 2.53378C11.6151 2.45641 11.5881 2.38222 11.5453 2.31711C11.5026 2.252 11.4452 2.19779 11.3778 2.15878C10.8633 1.86086 10.3117 1.63242 9.73718 1.4794C9.66147 1.45928 9.5821 1.45722 9.50546 1.47339C9.42881 1.48957 9.35704 1.52353 9.29593 1.57253L8.13405 2.50003H7.86405L6.69905 1.5694C6.63788 1.52051 6.56609 1.48666 6.48944 1.4706C6.4128 1.45453 6.33346 1.45669 6.2578 1.4769C5.68327 1.63005 5.13159 1.85871 4.61718 2.1569C4.54988 2.19598 4.49263 2.25023 4.44998 2.31533C4.40734 2.38044 4.38049 2.45459 4.37155 2.5319L4.20655 4.0169C4.14155 4.07899 4.07905 4.14149 4.01905 4.2044L2.5328 4.37503C2.45543 4.38403 2.38124 4.41098 2.31613 4.45373C2.25103 4.49649 2.19681 4.55386 2.1578 4.62128C1.85989 5.13575 1.63144 5.68743 1.47843 6.2619C1.4583 6.33761 1.45624 6.41698 1.47242 6.49362C1.48859 6.57027 1.52255 6.64204 1.57155 6.70315L2.49905 7.86503V8.13503L1.56843 9.30003C1.51953 9.3612 1.48569 9.43299 1.46962 9.50964C1.45355 9.58628 1.45571 9.66562 1.47593 9.74128C1.62879 10.3159 1.85746 10.8676 2.15593 11.3819C2.19501 11.4492 2.24926 11.5065 2.31436 11.5491C2.37946 11.5917 2.45362 11.6186 2.53093 11.6275L4.01343 11.7925C4.07551 11.8575 4.13801 11.92 4.20093 11.98L4.37405 13.4663C4.38305 13.5436 4.41 13.6178 4.45276 13.6829C4.49551 13.7481 4.55288 13.8023 4.6203 13.8413C5.13478 14.1392 5.68645 14.3676 6.26093 14.5207C6.33663 14.5408 6.416 14.5428 6.49265 14.5267C6.56929 14.5105 6.64106 14.4765 6.70218 14.4275L7.86405 13.5C7.95405 13.5025 8.04405 13.5025 8.13405 13.5L9.29905 14.4325C9.36022 14.4814 9.43202 14.5153 9.50866 14.5313C9.5853 14.5474 9.66465 14.5452 9.7403 14.525C10.3149 14.3722 10.8666 14.1435 11.3809 13.845C11.4482 13.806 11.5055 13.7517 11.5481 13.6866C11.5908 13.6215 11.6176 13.5473 11.6266 13.47L11.7916 11.9875C11.8566 11.9259 11.9191 11.8634 11.9791 11.8L13.4653 11.625C13.5427 11.616 13.6169 11.5891 13.682 11.5463C13.7471 11.5036 13.8013 11.4462 13.8403 11.3788C14.1382 10.8643 14.3667 10.3126 14.5197 9.73815C14.5398 9.66245 14.5419 9.58308 14.5257 9.50643C14.5095 9.42979 14.4756 9.35802 14.4266 9.2969L13.4991 8.13503ZM12.4928 7.72878C12.5034 7.90946 12.5034 8.0906 12.4928 8.27128C12.4854 8.39498 12.5241 8.51703 12.6016 8.61378L13.4884 9.7219C13.3867 10.0453 13.2563 10.359 13.0991 10.6594L11.6866 10.8194C11.5635 10.8331 11.45 10.8918 11.3678 10.9844C11.2475 11.1197 11.1194 11.2479 10.9841 11.3682C10.8915 11.4503 10.8327 11.5639 10.8191 11.6869L10.6622 13.0982C10.3619 13.2555 10.0481 13.3858 9.72468 13.4875L8.61593 12.6007C8.5272 12.5298 8.41699 12.4912 8.30343 12.4913H8.27343C8.09275 12.5019 7.9116 12.5019 7.73093 12.4913C7.60723 12.4838 7.48517 12.5226 7.38843 12.6L6.27718 13.4875C5.95376 13.3858 5.64003 13.2555 5.33968 13.0982L5.17968 11.6875C5.16602 11.5645 5.10723 11.4509 5.01468 11.3688C4.87936 11.2485 4.75122 11.1203 4.63093 10.985C4.54876 10.8925 4.43519 10.8337 4.31218 10.82L2.90093 10.6625C2.74354 10.3622 2.61323 10.0485 2.51155 9.72503L3.39843 8.61628C3.47587 8.51953 3.51462 8.39748 3.50718 8.27378C3.49656 8.0931 3.49656 7.91196 3.50718 7.73128C3.51462 7.60758 3.47587 7.48552 3.39843 7.38878L2.51155 6.27815C2.61333 5.95474 2.74363 5.64101 2.90093 5.34065L4.31155 5.18065C4.43456 5.167 4.54814 5.10821 4.6303 5.01565C4.7506 4.88034 4.87873 4.7522 5.01405 4.6319C5.10697 4.54968 5.16601 4.43585 5.17968 4.31253L5.33655 2.9019C5.63686 2.74452 5.9506 2.61421 6.27405 2.51253L7.3828 3.3994C7.47955 3.47684 7.6016 3.5156 7.7253 3.50815C7.90598 3.49754 8.08712 3.49754 8.2678 3.50815C8.3915 3.5156 8.51356 3.47684 8.6103 3.3994L9.72093 2.51253C10.0443 2.6143 10.3581 2.74461 10.6584 2.9019L10.8184 4.31253C10.8321 4.43554 10.8909 4.54911 10.9834 4.63128C11.1187 4.75157 11.2469 4.87971 11.3672 5.01503C11.4493 5.10758 11.5629 5.16637 11.6859 5.18003L13.0972 5.3369C13.2546 5.63722 13.3849 5.95096 13.4866 6.2744L12.5997 7.38315C12.5215 7.48071 12.4827 7.60403 12.4909 7.72878H12.4928Z" fill="black"/>
</svg>
