<svg width="16" height="16" viewBox="0 0 16 16" fill="none" xmlns="http://www.w3.org/2000/svg">
<path d="M7.25 7.5C7.25 7.35166 7.29399 7.20666 7.3764 7.08332C7.45881 6.95999 7.57594 6.86386 7.71299 6.80709C7.85003 6.75032 8.00083 6.73547 8.14632 6.76441C8.2918 6.79335 8.42544 6.86478 8.53033 6.96967C8.63522 7.07456 8.70665 7.2082 8.73559 7.35368C8.76453 7.49917 8.74967 7.64997 8.69291 7.78701C8.63614 7.92406 8.54001 8.04119 8.41668 8.1236C8.29334 8.20601 8.14834 8.25 8 8.25C7.80109 8.25 7.61032 8.17098 7.46967 8.03033C7.32902 7.88968 7.25 7.69891 7.25 7.5ZM5.25 8.25C5.39834 8.25 5.54334 8.20601 5.66668 8.1236C5.79001 8.04119 5.88614 7.92406 5.94291 7.78701C5.99968 7.64997 6.01453 7.49917 5.98559 7.35368C5.95665 7.2082 5.88522 7.07456 5.78033 6.96967C5.67544 6.86478 5.5418 6.79335 5.39632 6.76441C5.25083 6.73547 5.10003 6.75032 4.96299 6.80709C4.82594 6.86386 4.70881 6.95999 4.6264 7.08332C4.54399 7.20666 4.5 7.35166 4.5 7.5C4.5 7.69891 4.57902 7.88968 4.71967 8.03033C4.86032 8.17098 5.05109 8.25 5.25 8.25ZM10.75 8.25C10.8983 8.25 11.0433 8.20601 11.1667 8.1236C11.29 8.04119 11.3861 7.92406 11.4429 7.78701C11.4997 7.64997 11.5145 7.49917 11.4856 7.35368C11.4566 7.2082 11.3852 7.07456 11.2803 6.96967C11.1754 6.86478 11.0418 6.79335 10.8963 6.76441C10.7508 6.73547 10.6 6.75032 10.463 6.80709C10.3259 6.86386 10.2088 6.95999 10.1264 7.08332C10.044 7.20666 10 7.35166 10 7.5C10 7.69891 10.079 7.88968 10.2197 8.03033C10.3603 8.17098 10.5511 8.25 10.75 8.25ZM14.5 3.5V11.5C14.5 11.7652 14.3946 12.0196 14.2071 12.2071C14.0196 12.3946 13.7652 12.5 13.5 12.5H9.72313L8.86812 13.9963C8.78064 14.1493 8.65428 14.2764 8.50182 14.3649C8.34937 14.4533 8.17625 14.4999 8 14.4999C7.82375 14.4999 7.65063 14.4533 7.49818 14.3649C7.34572 14.2764 7.21936 14.1493 7.13188 13.9963L6.27688 12.5H2.5C2.23478 12.5 1.98043 12.3946 1.79289 12.2071C1.60536 12.0196 1.5 11.7652 1.5 11.5V3.5C1.5 3.23478 1.60536 2.98043 1.79289 2.79289C1.98043 2.60536 2.23478 2.5 2.5 2.5H13.5C13.7652 2.5 14.0196 2.60536 14.2071 2.79289C14.3946 2.98043 14.5 3.23478 14.5 3.5ZM13.5 3.5H2.5V11.5H6.56687C6.6554 11.4992 6.74255 11.5219 6.81942 11.5659C6.89629 11.6098 6.96011 11.6733 7.00437 11.75L8.00438 13.5L9.00438 11.75C9.04864 11.6733 9.11246 11.6098 9.18933 11.5659C9.2662 11.5219 9.35335 11.4992 9.44188 11.5H13.5V3.5Z" fill="black"/>
</svg>
