<svg width="16" height="16" viewBox="0 0 16 16" fill="none" xmlns="http://www.w3.org/2000/svg">
<path d="M13.5356 2.46449C12.7414 1.66918 11.7024 1.16466 10.5863 1.03234C9.47016 0.900015 8.34199 1.14761 7.38384 1.73517C6.42569 2.32272 5.69346 3.21597 5.30529 4.27077C4.91712 5.32556 4.89566 6.48038 5.24438 7.54887L1.79313 11.0001C1.69987 11.0926 1.62593 11.2028 1.5756 11.3241C1.52528 11.4455 1.49959 11.5756 1.50001 11.707V13.5001C1.50001 13.7653 1.60536 14.0197 1.7929 14.2072C1.98043 14.3948 2.23479 14.5001 2.50001 14.5001H4.50001C4.63261 14.5001 4.75979 14.4474 4.85356 14.3537C4.94733 14.2599 5.00001 14.1327 5.00001 14.0001V13.0001H6.00001C6.13261 13.0001 6.25979 12.9474 6.35356 12.8537C6.44733 12.7599 6.50001 12.6327 6.50001 12.5001V11.5001H7.50001C7.56569 11.5002 7.63073 11.4873 7.69143 11.4622C7.75213 11.4371 7.80729 11.4003 7.85376 11.3539L8.45126 10.7557C8.95137 10.9184 9.47409 11.0009 10 11.0001H10.0063C10.9947 10.9989 11.9605 10.7048 12.7818 10.1549C13.6032 9.60504 14.2431 8.82407 14.6208 7.91067C14.9985 6.99728 15.0969 5.99243 14.9038 5.02308C14.7107 4.05374 14.2346 3.16338 13.5356 2.46449ZM14 6.13137C13.9319 8.26199 12.1406 9.99762 10.0069 10.0001H10C9.49386 10.001 8.99219 9.9053 8.52188 9.71824C8.42988 9.67831 8.328 9.66698 8.22947 9.6857C8.13094 9.70442 8.04032 9.75235 7.96938 9.82324L7.29313 10.5001H6.00001C5.8674 10.5001 5.74022 10.5528 5.64645 10.6466C5.55268 10.7403 5.50001 10.8675 5.50001 11.0001V12.0001H4.50001C4.3674 12.0001 4.24022 12.0528 4.14645 12.1466C4.05268 12.2403 4.00001 12.3675 4.00001 12.5001V13.5001H2.50001V11.707L6.17688 8.03074C6.24777 7.9598 6.2957 7.86918 6.31442 7.77065C6.33315 7.67212 6.32181 7.57024 6.28188 7.47824C6.09419 7.00637 5.99851 6.50294 6.00001 5.99512C6.00001 3.86137 7.73813 2.07012 9.86875 2.00199C10.416 1.98373 10.9613 2.07803 11.4706 2.27906C11.98 2.4801 12.4427 2.78357 12.83 3.1707C13.2173 3.55782 13.5209 4.02034 13.7222 4.52962C13.9235 5.03889 14.018 5.58406 14 6.13137ZM12 4.75012C12 4.89845 11.956 5.04346 11.8736 5.16679C11.7912 5.29013 11.6741 5.38626 11.537 5.44303C11.4 5.49979 11.2492 5.51464 11.1037 5.48571C10.9582 5.45677 10.8246 5.38534 10.7197 5.28045C10.6148 5.17556 10.5434 5.04192 10.5144 4.89643C10.4855 4.75095 10.5003 4.60015 10.5571 4.4631C10.6139 4.32606 10.71 4.20893 10.8333 4.12651C10.9567 4.0441 11.1017 4.00012 11.25 4.00012C11.4489 4.00012 11.6397 4.07913 11.7803 4.21979C11.921 4.36044 12 4.5512 12 4.75012Z" fill="black"/>
</svg>
