<svg width="16" height="16" viewBox="0 0 16 16" fill="none" xmlns="http://www.w3.org/2000/svg">
<path d="M10.5003 14.0002C10.5003 14.1328 10.4477 14.2599 10.3539 14.3537C10.2601 14.4475 10.1329 14.5002 10.0003 14.5002H6.00034C5.86773 14.5002 5.74055 14.4475 5.64678 14.3537C5.55302 14.2599 5.50034 14.1328 5.50034 14.0002C5.50034 13.8675 5.55302 13.7404 5.64678 13.6466C5.74055 13.5528 5.86773 13.5002 6.00034 13.5002H10.0003C10.1329 13.5002 10.2601 13.5528 10.3539 13.6466C10.4477 13.7404 10.5003 13.8675 10.5003 14.0002ZM14.2122 3.77016C13.6503 2.67181 12.8064 1.74259 11.7672 1.07766C11.7117 1.04219 11.6497 1.01804 11.5848 1.00661C11.5199 0.995175 11.4534 0.99668 11.3891 1.01104C11.3248 1.02539 11.264 1.05232 11.2101 1.09026C11.1562 1.12821 11.1104 1.17643 11.0752 1.23214C11.0401 1.28786 11.0163 1.34998 11.0052 1.41493C10.9941 1.47988 10.996 1.54638 11.0107 1.61061C11.0254 1.67484 11.0526 1.73552 11.0909 1.78918C11.1291 1.84284 11.1776 1.88841 11.2335 1.92328C12.1251 2.49047 12.8475 3.28734 13.3247 4.23016C13.3878 4.34412 13.4928 4.42897 13.6175 4.46666C13.7422 4.50435 13.8766 4.4919 13.9923 4.43196C14.1079 4.37203 14.1956 4.26934 14.2367 4.14573C14.2777 4.02213 14.269 3.88738 14.2122 3.77016ZM2.23221 4.50016C2.32381 4.50012 2.41365 4.47492 2.4919 4.4273C2.57015 4.37969 2.63383 4.31149 2.67596 4.23016C3.15321 3.28734 3.8756 2.49047 4.76721 1.92328C4.82312 1.88841 4.87159 1.84284 4.90982 1.78918C4.94806 1.73552 4.97531 1.67484 4.99002 1.61061C5.00472 1.54638 5.00659 1.47988 4.9955 1.41493C4.98442 1.34998 4.96061 1.28786 4.92545 1.23214C4.89028 1.17643 4.84444 1.12821 4.79058 1.09026C4.73671 1.05232 4.67588 1.02539 4.61157 1.01104C4.54727 0.99668 4.48076 0.995175 4.41587 1.00661C4.35098 1.01804 4.28899 1.04219 4.23346 1.07766C3.19423 1.74259 2.35042 2.67181 1.78846 3.77016C1.74899 3.84635 1.72979 3.93143 1.73271 4.0172C1.73564 4.10297 1.76059 4.18654 1.80517 4.25987C1.84974 4.33321 1.91245 4.39383 1.98724 4.43591C2.06203 4.478 2.14639 4.50012 2.23221 4.50016ZM13.8635 10.9964C13.952 11.1483 13.999 11.3209 13.9996 11.4967C14.0002 11.6726 13.9544 11.8455 13.8669 11.998C13.7794 12.1505 13.6532 12.2772 13.501 12.3654C13.3489 12.4535 13.1762 12.5 13.0003 12.5002H3.00034C2.8246 12.4998 2.65206 12.4532 2.50009 12.3649C2.34812 12.2766 2.2221 12.1499 2.13471 11.9974C2.04732 11.845 2.00166 11.6721 2.00232 11.4964C2.00298 11.3207 2.04993 11.1482 2.13846 10.9964C2.70159 10.0245 3.00034 8.64266 3.00034 7.00016C3.00034 5.67407 3.52712 4.4023 4.4648 3.46462C5.40249 2.52694 6.67426 2.00016 8.00034 2.00016C9.32642 2.00016 10.5982 2.52694 11.5359 3.46462C12.4736 4.4023 13.0003 5.67407 13.0003 7.00016C13.0003 8.64203 13.2991 10.0239 13.8635 10.9964ZM13.0003 11.5002C12.3353 10.3583 12.0003 8.84453 12.0003 7.00016C12.0003 5.93929 11.5789 4.92187 10.8288 4.17173C10.0786 3.42158 9.0612 3.00016 8.00034 3.00016C6.93947 3.00016 5.92206 3.42158 5.17191 4.17173C4.42176 4.92187 4.00034 5.93929 4.00034 7.00016C4.00034 8.84516 3.66409 10.3589 3.00034 11.5002H13.0003Z" fill="black"/>
</svg>
