<svg width="16" height="16" viewBox="0 0 16 16" fill="none" xmlns="http://www.w3.org/2000/svg">
<path d="M15.5005 7.74976C15.4998 7.08746 15.3116 6.43889 14.9577 5.87911C14.6037 5.31933 14.0985 4.87121 13.5005 4.58663V4.49976C13.4999 3.85552 13.2919 3.22858 12.9074 2.7117C12.5228 2.19483 11.9821 1.81547 11.3652 1.62977C10.7483 1.44407 10.088 1.46189 9.48205 1.6806C8.87607 1.8993 8.35659 2.30727 8.00047 2.84413C7.64435 2.30727 7.12487 1.8993 6.51889 1.6806C5.91291 1.46189 5.25262 1.44407 4.63573 1.62977C4.01883 1.81547 3.47811 2.19483 3.09355 2.7117C2.709 3.22858 2.50105 3.85552 2.50047 4.49976V4.58663C1.90193 4.87043 1.39622 5.31827 1.0421 5.87808C0.687981 6.4379 0.5 7.08672 0.5 7.74913C0.5 8.41155 0.687981 9.06036 1.0421 9.62018C1.39622 10.18 1.90193 10.6278 2.50047 10.9116V10.9998C2.50105 11.644 2.709 12.2709 3.09355 12.7878C3.47811 13.3047 4.01883 13.684 4.63573 13.8697C5.25262 14.0554 5.91291 14.0376 6.51889 13.8189C7.12487 13.6002 7.64435 13.1922 8.00047 12.6554C8.35659 13.1922 8.87607 13.6002 9.48205 13.8189C10.088 14.0376 10.7483 14.0554 11.3652 13.8697C11.9821 13.684 12.5228 13.3047 12.9074 12.7878C13.2919 12.2709 13.4999 11.644 13.5005 10.9998V10.9116C14.0984 10.6273 14.6036 10.1794 14.9575 9.6198C15.3115 9.06023 15.4997 8.41187 15.5005 7.74976ZM5.50047 12.9998C5.00731 12.9997 4.53157 12.8174 4.16461 12.4879C3.79765 12.1585 3.56536 11.7051 3.51234 11.2148C3.67404 11.2378 3.83714 11.2495 4.00047 11.2498H4.50047C4.63308 11.2498 4.76025 11.1971 4.85402 11.1033C4.94779 11.0095 5.00047 10.8824 5.00047 10.7498C5.00047 10.6171 4.94779 10.49 4.85402 10.3962C4.76025 10.3024 4.63308 10.2498 4.50047 10.2498H4.00047C3.41019 10.2504 2.83871 10.0423 2.38721 9.66203C1.9357 9.28181 1.63329 8.7541 1.53352 8.17232C1.43375 7.59053 1.54305 6.99221 1.84208 6.48328C2.14111 5.97436 2.61057 5.58765 3.16734 5.39163C3.26476 5.35714 3.3491 5.29331 3.40876 5.20892C3.46841 5.12453 3.50045 5.02373 3.50047 4.92038V4.49976C3.50047 3.96932 3.71118 3.46062 4.08626 3.08554C4.46133 2.71047 4.97004 2.49976 5.50047 2.49976C6.0309 2.49976 6.53961 2.71047 6.91468 3.08554C7.28976 3.46062 7.50047 3.96932 7.50047 4.49976V8.76601C6.95142 8.27218 6.23893 7.99921 5.50047 7.99976C5.36786 7.99976 5.24068 8.05243 5.14692 8.1462C5.05315 8.23997 5.00047 8.36715 5.00047 8.49976C5.00047 8.63236 5.05315 8.75954 5.14692 8.85331C5.24068 8.94708 5.36786 8.99976 5.50047 8.99976C6.0309 8.99976 6.53961 9.21047 6.91468 9.58554C7.28976 9.96062 7.50047 10.4693 7.50047 10.9998C7.50047 11.5302 7.28976 12.0389 6.91468 12.414C6.53961 12.789 6.0309 12.9998 5.50047 12.9998ZM12.0005 10.2498H11.5005C11.3679 10.2498 11.2407 10.3024 11.1469 10.3962C11.0531 10.49 11.0005 10.6171 11.0005 10.7498C11.0005 10.8824 11.0531 11.0095 11.1469 11.1033C11.2407 11.1971 11.3679 11.2498 11.5005 11.2498H12.0005C12.1638 11.2495 12.3269 11.2378 12.4886 11.2148C12.4471 11.5989 12.2951 11.9628 12.0512 12.2625C11.8072 12.5621 11.4817 12.7847 11.1139 12.9033C10.7461 13.0218 10.3519 13.0313 9.97884 12.9306C9.60579 12.8299 9.26991 12.6232 9.0118 12.3357C8.7537 12.0481 8.58442 11.692 8.52443 11.3102C8.46445 10.9285 8.51632 10.5376 8.67379 10.1847C8.83126 9.83186 9.08757 9.53216 9.41174 9.32187C9.73592 9.11158 10.1141 8.9997 10.5005 8.99976C10.6331 8.99976 10.7603 8.94708 10.854 8.85331C10.9478 8.75954 11.0005 8.63236 11.0005 8.49976C11.0005 8.36715 10.9478 8.23997 10.854 8.1462C10.7603 8.05243 10.6331 7.99976 10.5005 7.99976C9.76201 7.99921 9.04952 8.27218 8.50047 8.76601V4.49976C8.50047 3.96932 8.71118 3.46062 9.08626 3.08554C9.46133 2.71047 9.97004 2.49976 10.5005 2.49976C11.0309 2.49976 11.5396 2.71047 11.9147 3.08554C12.2898 3.46062 12.5005 3.96932 12.5005 4.49976V4.92038C12.5005 5.02373 12.5325 5.12453 12.5922 5.20892C12.6518 5.29331 12.7362 5.35714 12.8336 5.39163C13.3904 5.58765 13.8598 5.97436 14.1589 6.48328C14.4579 6.99221 14.5672 7.59053 14.4674 8.17232C14.3677 8.7541 14.0652 9.28181 13.6137 9.66203C13.1622 10.0423 12.5907 10.2504 12.0005 10.2498ZM13.0005 6.99976C13.0005 7.13236 12.9478 7.25954 12.854 7.35331C12.7603 7.44708 12.6331 7.49976 12.5005 7.49976H12.2505C11.6537 7.49976 11.0814 7.2627 10.6595 6.84075C10.2375 6.41879 10.0005 5.84649 10.0005 5.24976V4.99976C10.0005 4.86715 10.0531 4.73997 10.1469 4.6462C10.2407 4.55243 10.3679 4.49976 10.5005 4.49976C10.6331 4.49976 10.7603 4.55243 10.854 4.6462C10.9478 4.73997 11.0005 4.86715 11.0005 4.99976V5.24976C11.0005 5.58128 11.1322 5.89922 11.3666 6.13364C11.601 6.36806 11.919 6.49976 12.2505 6.49976H12.5005C12.6331 6.49976 12.7603 6.55243 12.854 6.6462C12.9478 6.73997 13.0005 6.86715 13.0005 6.99976ZM3.75047 7.49976H3.50047C3.36786 7.49976 3.24068 7.44708 3.14692 7.35331C3.05315 7.25954 3.00047 7.13236 3.00047 6.99976C3.00047 6.86715 3.05315 6.73997 3.14692 6.6462C3.24068 6.55243 3.36786 6.49976 3.50047 6.49976H3.75047C4.08199 6.49976 4.39993 6.36806 4.63435 6.13364C4.86877 5.89922 5.00047 5.58128 5.00047 5.24976V4.99976C5.00047 4.86715 5.05315 4.73997 5.14692 4.6462C5.24068 4.55243 5.36786 4.49976 5.50047 4.49976C5.63308 4.49976 5.76025 4.55243 5.85402 4.6462C5.94779 4.73997 6.00047 4.86715 6.00047 4.99976V5.24976C6.00047 5.84649 5.76342 6.41879 5.34146 6.84075C4.9195 7.2627 4.34721 7.49976 3.75047 7.49976Z" fill="black"/>
</svg>
