<svg width="15" height="15" viewBox="0 0 15 15" fill="none" xmlns="http://www.w3.org/2000/svg">
<path d="M4.95853 8.58865L8.58635 4.96083C8.64962 4.89756 8.72474 4.84737 8.80741 4.81313C8.89008 4.77888 8.97869 4.76126 9.06817 4.76126C9.15765 4.76126 9.24626 4.77888 9.32893 4.81313C9.4116 4.84737 9.48672 4.89756 9.54999 4.96083C9.61326 5.02411 9.66346 5.09923 9.6977 5.1819C9.73194 5.26457 9.74957 5.35317 9.74957 5.44265C9.74957 5.53214 9.73194 5.62074 9.6977 5.70341C9.66346 5.78608 9.61326 5.8612 9.54999 5.92447L5.92217 9.55229C5.79438 9.68008 5.62107 9.75187 5.44035 9.75187C5.25963 9.75187 5.08632 9.68008 4.95853 9.55229C4.83074 9.42451 4.75896 9.25119 4.75896 9.07047C4.75896 8.88976 4.83074 8.71644 4.95853 8.58865ZM12.3842 2.1266C11.7458 1.48959 10.8807 1.13184 9.97881 1.13184C9.07692 1.13184 8.21185 1.48959 7.5734 2.1266L5.86605 3.83224C5.73827 3.96003 5.66648 4.13335 5.66648 4.31406C5.66648 4.49478 5.73827 4.6681 5.86605 4.79588C5.99384 4.92367 6.16716 4.99546 6.34787 4.99546C6.52859 4.99546 6.70191 4.92367 6.82969 4.79588L8.5342 3.09194C8.72372 2.90238 8.94873 2.75201 9.19636 2.6494C9.444 2.5468 9.70942 2.49398 9.97748 2.49395C10.2455 2.49392 10.511 2.5467 10.7586 2.64925C11.0063 2.7518 11.2313 2.90214 11.4209 3.09166C11.6104 3.28118 11.7608 3.50618 11.8634 3.75382C11.966 4.00146 12.0188 4.26688 12.0189 4.53493C12.0189 4.80298 11.9661 5.06842 11.8636 5.31607C11.761 5.56373 11.6107 5.78877 11.4212 5.97833L9.71438 7.6817C9.58659 7.80949 9.5148 7.9828 9.5148 8.16352C9.5148 8.34424 9.58659 8.51755 9.71438 8.64534C9.84216 8.77313 10.0155 8.84491 10.1962 8.84491C10.3769 8.84491 10.5502 8.77313 10.678 8.64534L12.3831 6.9414C13.0204 6.30255 13.3782 5.4369 13.3779 4.5345C13.3776 3.6321 13.0192 2.7667 12.3814 2.1283L12.3842 2.1266ZM7.68053 9.71554L5.97602 11.4206C5.78646 11.6101 5.56143 11.7605 5.31377 11.863C5.06611 11.9656 4.80068 12.0184 4.53263 12.0183C4.26458 12.0183 3.99916 11.9655 3.75152 11.8629C3.50388 11.7603 3.27888 11.6099 3.08935 11.4203C2.7066 11.0375 2.49159 10.5183 2.49165 9.97694C2.4917 9.43559 2.7068 8.91643 3.08964 8.53367L4.79358 6.82916C4.85685 6.76589 4.90704 6.69077 4.94129 6.6081C4.97553 6.52543 4.99316 6.43682 4.99316 6.34734C4.99316 6.25786 4.97553 6.16925 4.94129 6.08658C4.90704 6.00391 4.85685 5.9288 4.79358 5.86552C4.73031 5.80225 4.65519 5.75206 4.57252 5.71781C4.48985 5.68357 4.40124 5.66595 4.31176 5.66595C4.22228 5.66595 4.13367 5.68357 4.051 5.71781C3.96833 5.75206 3.89321 5.80225 3.82994 5.86552L2.12713 7.57173C1.48918 8.20976 1.13081 9.07509 1.13086 9.97735C1.13091 10.8796 1.48938 11.7449 2.12742 12.3828C2.76545 13.0208 3.63077 13.3792 4.53303 13.3791C5.43529 13.3791 6.30057 13.0206 6.93853 12.3826L8.64247 10.6781C8.77026 10.5503 8.84205 10.3769 8.84205 10.1962C8.84205 10.0155 8.77026 9.8422 8.64247 9.71441C8.51468 9.58663 8.34137 9.51484 8.16065 9.51484C7.97993 9.51484 7.80662 9.58663 7.67883 9.71441L7.68053 9.71554Z" fill="black"/>
</svg>
