<svg width="15" height="15" viewBox="0 0 15 15" fill="none" xmlns="http://www.w3.org/2000/svg">
<path fill-rule="evenodd" clip-rule="evenodd" d="M7.27088 1.20898C3.93994 1.20898 1.24023 3.90869 1.24023 7.23963C1.24023 9.90366 2.96768 12.1644 5.36446 12.9625C5.66617 13.0169 5.77501 12.8313 5.77501 12.6717C5.77501 12.5284 5.77017 12.1487 5.76836 11.6462C4.09049 12.0102 3.73617 10.8372 3.73617 10.8372C3.46288 10.1407 3.06684 9.95505 3.06684 9.95505C2.51965 9.58078 3.10856 9.58925 3.10856 9.58925C3.71441 9.63157 4.03184 10.2108 4.03184 10.2108C4.56997 11.1323 5.44427 10.8662 5.7865 10.7121C5.84152 10.3221 5.99872 10.056 6.17044 9.90547C4.83178 9.75371 3.42418 9.23614 3.42418 6.92461C3.42418 6.26737 3.65939 5.72804 4.04333 5.30721C3.98226 5.15424 3.77366 4.54053 4.10319 3.71097C4.10319 3.71097 4.60927 3.54832 5.7611 4.3283C6.25303 4.19448 6.76047 4.12617 7.27028 4.12515C7.78009 4.12597 8.28756 4.19429 8.77945 4.3283C9.93189 3.54772 10.4374 3.71097 10.4374 3.71097C10.7669 4.54053 10.5601 5.15424 10.4972 5.30721C10.8842 5.72804 11.1164 6.26677 11.1164 6.92461C11.1164 9.24219 9.70757 9.75129 8.36406 9.90064C8.57871 10.0869 8.77219 10.4545 8.77219 11.0168C8.77219 11.8234 8.76494 12.474 8.76494 12.6717C8.76494 12.8331 8.87256 13.0206 9.18032 12.9613C11.5759 12.162 13.3015 9.90305 13.3015 7.23963C13.3015 3.90869 10.6018 1.20898 7.27088 1.20898Z" fill="black"/>
</svg>
