<svg width="15" height="15" viewBox="0 0 15 15" fill="none" xmlns="http://www.w3.org/2000/svg">
<path d="M7.25535 1.20898C3.92138 1.20898 1.20898 3.92138 1.20898 7.25535C1.20898 10.5893 3.92138 13.3017 7.25535 13.3017C10.5893 13.3017 13.3017 10.5893 13.3017 7.25535C13.3017 3.92138 10.5893 1.20898 7.25535 1.20898ZM12.0507 6.65071H10.3795C10.3049 5.32731 9.93467 4.03745 9.296 2.87597C10.0362 3.22185 10.6769 3.7493 11.1585 4.40927C11.6402 5.06924 11.9471 5.84029 12.0507 6.65071ZM7.57581 2.43458C8.20161 3.25931 9.04326 4.72011 9.16419 6.65071H5.45958C5.54362 5.08108 6.06059 3.6106 6.94154 2.43398C7.04554 2.42793 7.14954 2.41826 7.25535 2.41826C7.36358 2.41826 7.46939 2.42793 7.57581 2.43458ZM5.25279 2.85783C4.65783 4.0012 4.3144 5.29754 4.25031 6.65071H2.45998C2.56444 5.83315 2.87575 5.05574 3.36445 4.39204C3.85315 3.72834 4.50309 3.20029 5.25279 2.85783ZM2.45998 7.85999H4.25817C4.3404 9.29842 4.66025 10.5675 5.19898 11.6269C4.46265 11.2798 3.82569 10.7527 3.34695 10.0943C2.86822 9.4359 2.56317 8.66746 2.45998 7.85999ZM6.9228 12.0761C6.0757 11.0494 5.57567 9.61101 5.46623 7.85999H9.16237C9.03661 9.53664 8.48699 11.0017 7.5885 12.0755C7.47846 12.0828 7.36842 12.0924 7.25535 12.0924C7.14289 12.0924 7.03345 12.0828 6.9228 12.0761ZM9.348 11.6093C9.92543 10.5246 10.2779 9.25065 10.3704 7.85999H12.0501C11.9481 8.66069 11.6474 9.42317 11.1755 10.078C10.7035 10.7328 10.0753 11.2593 9.348 11.6093Z" fill="black"/>
</svg>
