<svg width="18" height="18" viewBox="0 0 18 18" fill="none" xmlns="http://www.w3.org/2000/svg">
<path d="M10.6521 15.2222L5.02713 9.59717C4.94847 9.51878 4.88606 9.42564 4.84347 9.32308C4.80089 9.22052 4.77896 9.11056 4.77896 8.99951C4.77896 8.88846 4.80089 8.7785 4.84347 8.67594C4.88606 8.57339 4.94847 8.48024 5.02713 8.40185L10.6521 2.77685C10.8106 2.61835 11.0256 2.5293 11.2498 2.5293C11.474 2.5293 11.6889 2.61835 11.8474 2.77685C12.006 2.93536 12.095 3.15035 12.095 3.37451C12.095 3.59868 12.006 3.81366 11.8474 3.97217L6.8194 9.00021L11.8481 14.0283C12.0067 14.1868 12.0957 14.4018 12.0957 14.6259C12.0957 14.8501 12.0067 15.0651 11.8481 15.2236C11.6896 15.3821 11.4747 15.4711 11.2505 15.4711C11.0263 15.4711 10.8113 15.3821 10.6528 15.2236L10.6521 15.2222Z" fill="#3D3D3D"/>
</svg>
