<svg width="14" height="14" viewBox="0 0 14 14" fill="none" xmlns="http://www.w3.org/2000/svg">
<path d="M6.5303 1.22461C5.48093 1.22461 4.45513 1.53578 3.58262 2.11878C2.7101 2.70178 2.03006 3.53041 1.62848 4.4999C1.22691 5.46938 1.12184 6.53618 1.32656 7.56538C1.53128 8.59459 2.0366 9.53997 2.77861 10.282C3.52062 11.024 4.46601 11.5293 5.49521 11.734C6.52441 11.9388 7.59121 11.8337 8.5607 11.4321C9.53018 11.0305 10.3588 10.3505 10.9418 9.47798C11.5248 8.60546 11.836 7.57966 11.836 6.5303C11.8345 5.1236 11.275 3.77494 10.2803 2.78025C9.28566 1.78556 7.937 1.22609 6.5303 1.22461ZM8.8597 5.59466L6.00279 8.45157C5.96489 8.48951 5.91987 8.51962 5.87033 8.54016C5.82078 8.56069 5.76767 8.57127 5.71404 8.57127C5.6604 8.57127 5.6073 8.56069 5.55775 8.54016C5.5082 8.51962 5.46319 8.48951 5.42529 8.45157L4.2009 7.22718C4.12432 7.1506 4.08129 7.04673 4.08129 6.93843C4.08129 6.83012 4.12432 6.72626 4.2009 6.64967C4.27748 6.57309 4.38135 6.53007 4.48965 6.53007C4.59795 6.53007 4.70182 6.57309 4.7784 6.64967L5.71404 7.58582L8.28219 5.01715C8.32011 4.97924 8.36513 4.94916 8.41468 4.92863C8.46422 4.90811 8.51732 4.89755 8.57095 4.89755C8.62457 4.89755 8.67767 4.90811 8.72722 4.92863C8.77676 4.94916 8.82178 4.97924 8.8597 5.01715C8.89762 5.05507 8.9277 5.10009 8.94822 5.14964C8.96874 5.19918 8.9793 5.25228 8.9793 5.30591C8.9793 5.35953 8.96874 5.41263 8.94822 5.46218C8.9277 5.51172 8.89762 5.55674 8.8597 5.59466Z" fill="#00A46B"/>
</svg>
