<svg width="14" height="14" viewBox="0 0 14 14" fill="none" xmlns="http://www.w3.org/2000/svg">
<path d="M12.2356 9.71889L7.717 1.87168C7.60408 1.67943 7.44288 1.52002 7.24938 1.40926C7.05588 1.2985 6.83679 1.24023 6.61383 1.24023C6.39087 1.24023 6.17178 1.2985 5.97828 1.40926C5.78478 1.52002 5.62358 1.67943 5.51066 1.87168L0.992072 9.71889C0.883427 9.90484 0.826172 10.1163 0.826172 10.3317C0.826172 10.5471 0.883427 10.7586 0.992072 10.9445C1.10354 11.1379 1.26446 11.2982 1.45833 11.4089C1.65219 11.5196 1.87201 11.5767 2.09524 11.5744H11.1324C11.3555 11.5765 11.5751 11.5193 11.7687 11.4086C11.9624 11.298 12.1232 11.1378 12.2346 10.9445C12.3434 10.7587 12.4008 10.5472 12.401 10.3318C12.4012 10.1165 12.3441 9.90494 12.2356 9.71889ZM6.20047 5.37391C6.20047 5.26428 6.24402 5.15914 6.32154 5.08162C6.39906 5.0041 6.5042 4.96055 6.61383 4.96055C6.72346 4.96055 6.8286 5.0041 6.90612 5.08162C6.98364 5.15914 7.02719 5.26428 7.02719 5.37391V7.44074C7.02719 7.55037 6.98364 7.65551 6.90612 7.73303C6.8286 7.81055 6.72346 7.8541 6.61383 7.8541C6.5042 7.8541 6.39906 7.81055 6.32154 7.73303C6.24402 7.65551 6.20047 7.55037 6.20047 7.44074V5.37391ZM6.61383 9.92092C6.4912 9.92092 6.37132 9.88456 6.26935 9.81643C6.16738 9.74829 6.08791 9.65146 6.04098 9.53816C5.99405 9.42486 5.98177 9.30019 6.0057 9.17991C6.02962 9.05963 6.08868 8.94915 6.17539 8.86244C6.26211 8.77572 6.37259 8.71667 6.49286 8.69274C6.61314 8.66882 6.73781 8.6811 6.85111 8.72803C6.96441 8.77496 7.06125 8.85443 7.12938 8.9564C7.19751 9.05836 7.23388 9.17824 7.23388 9.30088C7.23388 9.46532 7.16855 9.62303 7.05227 9.73932C6.93599 9.8556 6.77828 9.92092 6.61383 9.92092Z" fill="#CC3333"/>
</svg>
