<svg width="18" height="18" viewBox="0 0 18 18" fill="none" xmlns="http://www.w3.org/2000/svg">
<path d="M1.96808 8.99978C1.96808 9.22356 2.05698 9.43817 2.21521 9.59641C2.37345 9.75464 2.58806 9.84353 2.81183 9.84353H13.1478L9.52527 13.4653C9.36676 13.6238 9.27771 13.8388 9.27771 14.063C9.27771 14.2872 9.36676 14.5021 9.52527 14.6606C9.68378 14.8192 9.89876 14.9082 10.1229 14.9082C10.3471 14.9082 10.5621 14.8192 10.7206 14.6606L15.7831 9.59814C15.8617 9.51976 15.9242 9.42661 15.9667 9.32405C16.0093 9.22149 16.0312 9.11154 16.0312 9.00049C16.0312 8.88944 16.0093 8.77948 15.9667 8.67692C15.9242 8.57436 15.8617 8.48122 15.7831 8.40283L10.7206 3.34033C10.6421 3.26185 10.5489 3.19959 10.4464 3.15711C10.3438 3.11464 10.2339 3.09277 10.1229 3.09277C10.0119 3.09277 9.90203 3.11464 9.79948 3.15711C9.69693 3.19959 9.60376 3.26185 9.52527 3.34033C9.44679 3.41882 9.38453 3.51199 9.34205 3.61454C9.29958 3.71708 9.27771 3.82699 9.27771 3.93799C9.27771 4.04898 9.29958 4.15889 9.34205 4.26144C9.38453 4.36398 9.44679 4.45716 9.52527 4.53564L13.1478 8.15603H2.81183C2.58806 8.15603 2.37345 8.24493 2.21521 8.40316C2.05698 8.5614 1.96808 8.77601 1.96808 8.99978Z" fill="#F4F4F4"/>
</svg>
