<svg width="22" height="22" viewBox="0 0 22 22" fill="none" xmlns="http://www.w3.org/2000/svg">
<path d="M19.7364 5.01316L16.9864 2.26316C16.9226 2.19924 16.8467 2.14853 16.7633 2.11393C16.6798 2.07933 16.5903 2.06152 16.5 2.06152C16.4097 2.06152 16.3202 2.07933 16.2367 2.11393C16.1533 2.14853 16.0774 2.19924 16.0136 2.26316L7.76359 10.5132C7.69977 10.5771 7.64916 10.6529 7.61466 10.7364C7.58015 10.8198 7.56243 10.9093 7.5625 10.9996V13.7496C7.5625 13.9319 7.63493 14.1068 7.76386 14.2357C7.8928 14.3646 8.06766 14.4371 8.25 14.4371H11C11.0903 14.4371 11.1798 14.4194 11.2632 14.3849C11.3467 14.3504 11.4225 14.2998 11.4864 14.236L19.7364 5.98597C19.8003 5.92212 19.851 5.8463 19.8856 5.76284C19.9202 5.67937 19.938 5.58991 19.938 5.49956C19.938 5.40922 19.9202 5.31975 19.8856 5.23629C19.851 5.15283 19.8003 5.07701 19.7364 5.01316ZM10.7155 13.0621H8.9375V11.284L14.4375 5.78402L16.2155 7.56206L10.7155 13.0621ZM17.1875 6.59011L15.4095 4.81206L16.5 3.72152L18.278 5.49956L17.1875 6.59011ZM19.25 10.9996V17.8746C19.25 18.2392 19.1051 18.589 18.8473 18.8468C18.5894 19.1047 18.2397 19.2496 17.875 19.2496H4.125C3.76033 19.2496 3.41059 19.1047 3.15273 18.8468C2.89487 18.589 2.75 18.2392 2.75 17.8746V4.12456C2.75 3.75989 2.89487 3.41015 3.15273 3.15229C3.41059 2.89443 3.76033 2.74956 4.125 2.74956H11C11.1823 2.74956 11.3572 2.822 11.4861 2.95093C11.6151 3.07986 11.6875 3.25473 11.6875 3.43706C11.6875 3.6194 11.6151 3.79427 11.4861 3.9232C11.3572 4.05213 11.1823 4.12456 11 4.12456H4.125V17.8746H17.875V10.9996C17.875 10.8172 17.9474 10.6424 18.0764 10.5134C18.2053 10.3845 18.3802 10.3121 18.5625 10.3121C18.7448 10.3121 18.9197 10.3845 19.0486 10.5134C19.1776 10.6424 19.25 10.8172 19.25 10.9996Z" fill="#4167F2"/>
</svg>
