<svg width="14" height="14" viewBox="0 0 14 14" fill="none" xmlns="http://www.w3.org/2000/svg">
<path d="M12.9065 7.49227C12.81 8.61449 12.3949 9.68579 11.7102 10.5801C11.0255 11.4745 10.0996 12.1547 9.04144 12.5407C7.98328 12.9267 6.83689 13.0025 5.73713 12.7591C4.63737 12.5157 3.63001 11.9633 2.83355 11.1668C2.03708 10.3703 1.48466 9.36298 1.24127 8.26322C0.997879 7.16346 1.07364 6.01707 1.45965 4.95891C1.84566 3.90075 2.52585 2.97485 3.4202 2.29013C4.31456 1.60541 5.38586 1.19037 6.50808 1.09383C6.68213 1.07933 6.85481 1.13456 6.98814 1.24737C7.12147 1.36019 7.20452 1.52134 7.21902 1.69539C7.23353 1.86944 7.17829 2.04212 7.06548 2.17545C6.95266 2.30877 6.79151 2.39182 6.61746 2.40633C5.7443 2.48121 4.9107 2.80394 4.21474 3.33654C3.51879 3.86914 2.98945 4.58945 2.68901 5.41271C2.38856 6.23596 2.32953 7.12791 2.51884 7.98358C2.70815 8.83925 3.13794 9.62305 3.75762 10.2427C4.3773 10.8624 5.1611 11.2922 6.01677 11.4815C6.87244 11.6708 7.76439 11.6118 8.58764 11.3113C9.4109 11.0109 10.1312 10.4816 10.6638 9.78561C11.1964 9.08965 11.5191 8.25605 11.594 7.38289C11.6012 7.29671 11.6253 7.21279 11.6649 7.13592C11.7045 7.05905 11.7589 6.99073 11.8249 6.93487C11.8909 6.87901 11.9673 6.8367 12.0497 6.81035C12.132 6.78401 12.2188 6.77415 12.305 6.78133C12.3911 6.78851 12.4751 6.8126 12.5519 6.85221C12.6288 6.89183 12.6971 6.94619 12.753 7.01221C12.8088 7.07823 12.8512 7.1546 12.8775 7.23697C12.9038 7.31934 12.9137 7.40609 12.9065 7.49227ZM6.34402 4.15633V7.00008C6.34402 7.17413 6.41316 7.34105 6.53623 7.46412C6.6593 7.58719 6.82622 7.65633 7.00027 7.65633H9.84402C10.0181 7.65633 10.185 7.58719 10.3081 7.46412C10.4311 7.34105 10.5003 7.17413 10.5003 7.00008C10.5003 6.82603 10.4311 6.65911 10.3081 6.53604C10.185 6.41297 10.0181 6.34383 9.84402 6.34383H7.65652V4.15633C7.65652 3.98228 7.58738 3.81536 7.46431 3.69229C7.34124 3.56922 7.17432 3.50008 7.00027 3.50008C6.82622 3.50008 6.6593 3.56922 6.53623 3.69229C6.41316 3.81536 6.34402 3.98228 6.34402 4.15633ZM11.3753 5.25008C11.5483 5.25008 11.7175 5.19876 11.8614 5.10261C12.0053 5.00647 12.1174 4.86981 12.1837 4.70993C12.2499 4.55004 12.2672 4.37411 12.2335 4.20438C12.1997 4.03464 12.1164 3.87873 11.994 3.75636C11.8716 3.63399 11.7157 3.55065 11.546 3.51689C11.3762 3.48313 11.2003 3.50046 11.0404 3.56668C10.8805 3.63291 10.7439 3.74506 10.6477 3.88896C10.5516 4.03285 10.5003 4.20202 10.5003 4.37508C10.5003 4.60714 10.5925 4.8297 10.7566 4.9938C10.9206 5.15789 11.1432 5.25008 11.3753 5.25008ZM9.62527 3.50008C9.79833 3.50008 9.9675 3.44876 10.1114 3.35261C10.2553 3.25647 10.3674 3.11981 10.4337 2.95993C10.4999 2.80004 10.5172 2.62411 10.4835 2.45437C10.4497 2.28464 10.3664 2.12873 10.244 2.00636C10.1216 1.88399 9.96571 1.80065 9.79598 1.76689C9.62624 1.73313 9.45031 1.75046 9.29042 1.81668C9.13054 1.88291 8.99388 1.99506 8.89774 2.13896C8.80159 2.28285 8.75027 2.45202 8.75027 2.62508C8.75027 2.85714 8.84246 3.0797 9.00655 3.2438C9.17065 3.40789 9.39321 3.50008 9.62527 3.50008Z" fill="black"/>
</svg>
