<svg width="10" height="6" viewBox="0 0 10 6" fill="none" xmlns="http://www.w3.org/2000/svg">
<path d="M9.49738 0.747032L5.12238 5.12203C5.08174 5.16271 5.03349 5.19498 4.98038 5.217C4.92727 5.23901 4.87034 5.25034 4.81284 5.25034C4.75535 5.25034 4.69842 5.23901 4.64531 5.217C4.5922 5.19498 4.54395 5.16271 4.50331 5.12203L0.128313 0.747032C0.0670583 0.685845 0.025335 0.607859 0.00842549 0.522947C-0.00848406 0.438035 0.000180466 0.350014 0.0333222 0.270029C0.0664639 0.190044 0.122593 0.121691 0.194602 0.0736225C0.266612 0.025554 0.351265 -6.79995e-05 0.437845 1.35538e-07H9.18784C9.27442 -6.79995e-05 9.35908 0.025554 9.43109 0.0736225C9.5031 0.121691 9.55923 0.190044 9.59237 0.270029C9.62551 0.350014 9.63417 0.438035 9.61726 0.522947C9.60035 0.607859 9.55863 0.685845 9.49738 0.747032Z" fill="black"/>
</svg>
