<svg width="14" height="14" viewBox="0 0 14 14" fill="none" xmlns="http://www.w3.org/2000/svg">
<path d="M11.1562 7.4375C11.1562 7.61155 11.0871 7.77847 10.964 7.90154C10.841 8.02461 10.674 8.09375 10.5 8.09375H3.5C3.32595 8.09375 3.15903 8.02461 3.03596 7.90154C2.91289 7.77847 2.84375 7.61155 2.84375 7.4375C2.84375 7.26345 2.91289 7.09653 3.03596 6.97346C3.15903 6.85039 3.32595 6.78125 3.5 6.78125H10.5C10.674 6.78125 10.841 6.85039 10.964 6.97346C11.0871 7.09653 11.1562 7.26345 11.1562 7.4375ZM12.6875 4.15625H1.3125C1.13845 4.15625 0.971532 4.22539 0.848461 4.34846C0.72539 4.47153 0.65625 4.63845 0.65625 4.8125C0.65625 4.98655 0.72539 5.15347 0.848461 5.27654C0.971532 5.39961 1.13845 5.46875 1.3125 5.46875H12.6875C12.8615 5.46875 13.0285 5.39961 13.1515 5.27654C13.2746 5.15347 13.3438 4.98655 13.3438 4.8125C13.3438 4.63845 13.2746 4.47153 13.1515 4.34846C13.0285 4.22539 12.8615 4.15625 12.6875 4.15625ZM8.3125 9.40625H5.6875C5.51345 9.40625 5.34653 9.47539 5.22346 9.59846C5.10039 9.72153 5.03125 9.88845 5.03125 10.0625C5.03125 10.2365 5.10039 10.4035 5.22346 10.5265C5.34653 10.6496 5.51345 10.7188 5.6875 10.7188H8.3125C8.48655 10.7188 8.65347 10.6496 8.77654 10.5265C8.89961 10.4035 8.96875 10.2365 8.96875 10.0625C8.96875 9.88845 8.89961 9.72153 8.77654 9.59846C8.65347 9.47539 8.48655 9.40625 8.3125 9.40625Z" fill="black"/>
</svg>
