<svg width="22" height="22" viewBox="0 0 22 22" fill="none" xmlns="http://www.w3.org/2000/svg">
<path d="M13.4063 11C13.4063 11.4759 13.2651 11.9411 13.0007 12.3368C12.7363 12.7325 12.3605 13.041 11.9208 13.2231C11.4811 13.4052 10.9973 13.4529 10.5306 13.36C10.0638 13.2672 9.63505 13.038 9.29853 12.7015C8.96201 12.365 8.73283 11.9362 8.63999 11.4694C8.54714 11.0027 8.59479 10.5189 8.77692 10.0792C8.95904 9.63948 9.26745 9.26368 9.66316 8.99928C10.0589 8.73488 10.5241 8.59375 11 8.59375C11.6382 8.59375 12.2502 8.84727 12.7015 9.29853C13.1527 9.74979 13.4063 10.3618 13.4063 11ZM11 6.53125C11.4759 6.53125 11.9411 6.39013 12.3368 6.12572C12.7325 5.86132 13.041 5.48552 13.2231 5.04583C13.4052 4.60615 13.4529 4.12233 13.36 3.65557C13.2672 3.1888 13.038 2.76005 12.7015 2.42353C12.365 2.08701 11.9362 1.85783 11.4694 1.76499C11.0027 1.67214 10.5189 1.71979 10.0792 1.90192C9.63948 2.08404 9.26368 2.39245 8.99928 2.78816C8.73488 3.18387 8.59375 3.64909 8.59375 4.125C8.59375 4.76318 8.84727 5.37522 9.29853 5.82648C9.74979 6.27774 10.3618 6.53125 11 6.53125ZM11 15.4688C10.5241 15.4688 10.0589 15.6099 9.66316 15.8743C9.26745 16.1387 8.95904 16.5145 8.77692 16.9542C8.59479 17.3939 8.54714 17.8777 8.63999 18.3444C8.73283 18.8112 8.96201 19.24 9.29853 19.5765C9.63505 19.913 10.0638 20.1422 10.5306 20.235C10.9973 20.3279 11.4811 20.2802 11.9208 20.0981C12.3605 19.916 12.7363 19.6075 13.0007 19.2118C13.2651 18.8161 13.4063 18.3509 13.4063 17.875C13.4063 17.2368 13.1527 16.6248 12.7015 16.1735C12.2502 15.7223 11.6382 15.4688 11 15.4688Z" fill="black"/>
</svg>
