<svg width="18" height="18" viewBox="0 0 18 18" fill="none" xmlns="http://www.w3.org/2000/svg">
<path d="M9 12.6562C9.96936 12.6551 10.8987 12.2696 11.5841 11.5841C12.2696 10.8987 12.6551 9.96935 12.6562 9V4.5C12.6562 3.5303 12.271 2.60032 11.5854 1.91464C10.8997 1.22896 9.9697 0.84375 9 0.84375C8.0303 0.84375 7.10032 1.22896 6.41464 1.91464C5.72896 2.60032 5.34375 3.5303 5.34375 4.5V9C5.34487 9.96935 5.73044 10.8987 6.41587 11.5841C7.10131 12.2696 8.03064 12.6551 9 12.6562ZM7.03125 4.5C7.03125 3.97785 7.23867 3.4771 7.60788 3.10788C7.9771 2.73867 8.47786 2.53125 9 2.53125C9.52214 2.53125 10.0229 2.73867 10.3921 3.10788C10.7613 3.4771 10.9688 3.97785 10.9688 4.5V9C10.9688 9.52215 10.7613 10.0229 10.3921 10.3921C10.0229 10.7613 9.52214 10.9688 9 10.9688C8.47786 10.9688 7.9771 10.7613 7.60788 10.3921C7.23867 10.0229 7.03125 9.52215 7.03125 9V4.5ZM9.84375 15.4139V16.875C9.84375 17.0988 9.75485 17.3134 9.59662 17.4716C9.43839 17.6299 9.22378 17.7188 9 17.7188C8.77622 17.7188 8.56161 17.6299 8.40338 17.4716C8.24514 17.3134 8.15625 17.0988 8.15625 16.875V15.4139C6.60096 15.2072 5.17354 14.4431 4.13903 13.2635C3.10453 12.0839 2.53324 10.569 2.53125 9C2.53125 8.77622 2.62014 8.56161 2.77838 8.40338C2.93661 8.24514 3.15122 8.15625 3.375 8.15625C3.59878 8.15625 3.81339 8.24514 3.97162 8.40338C4.12986 8.56161 4.21875 8.77622 4.21875 9C4.21875 10.2681 4.72249 11.4842 5.61915 12.3809C6.5158 13.2775 7.73193 13.7812 9 13.7812C10.2681 13.7812 11.4842 13.2775 12.3809 12.3809C13.2775 11.4842 13.7812 10.2681 13.7812 9C13.7812 8.77622 13.8701 8.56161 14.0284 8.40338C14.1866 8.24514 14.4012 8.15625 14.625 8.15625C14.8488 8.15625 15.0634 8.24514 15.2216 8.40338C15.3799 8.56161 15.4688 8.77622 15.4688 9C15.4668 10.569 14.8955 12.0839 13.861 13.2635C12.8265 14.4431 11.399 15.2072 9.84375 15.4139Z" fill="black"/>
</svg>
