<svg width="20" height="19" viewBox="0 0 20 19" fill="none" xmlns="http://www.w3.org/2000/svg">
<path d="M7.94254 15.8577L14.1925 9.92016C14.2506 9.86502 14.2967 9.79954 14.3282 9.72746C14.3597 9.65538 14.3758 9.57811 14.3758 9.50009C14.3758 9.42206 14.3597 9.3448 14.3282 9.27272C14.2967 9.20063 14.2506 9.13515 14.1925 9.08001L7.94254 3.14251C7.82526 3.0311 7.6662 2.96851 7.50035 2.96851C7.3345 2.96851 7.17544 3.0311 7.05816 3.14251C6.94088 3.25392 6.875 3.40503 6.875 3.56259C6.875 3.72015 6.94088 3.87125 7.05816 3.98266L12.8668 9.50009L7.05816 15.0175C7.00009 15.0727 6.95403 15.1382 6.9226 15.2102C6.89117 15.2823 6.875 15.3596 6.875 15.4376C6.875 15.5156 6.89117 15.5929 6.9226 15.6649C6.95403 15.737 7.00009 15.8025 7.05816 15.8577C7.11623 15.9128 7.18517 15.9566 7.26104 15.9864C7.33691 16.0163 7.41823 16.0317 7.50035 16.0317C7.58247 16.0317 7.66379 16.0163 7.73966 15.9864C7.81553 15.9566 7.88447 15.9128 7.94254 15.8577Z" fill="#767676"/>
</svg>
