<svg width="18" height="18" viewBox="0 0 18 18" fill="none" xmlns="http://www.w3.org/2000/svg">
<path d="M16.3465 15.1531L13.0073 11.8125C14.0085 10.5079 14.476 8.87121 14.3148 7.23458C14.1537 5.59795 13.376 4.08389 12.1396 2.99955C10.9032 1.9152 9.30059 1.34177 7.65692 1.39556C6.01326 1.44935 4.4516 2.12635 3.28873 3.28922C2.12586 4.45209 1.44886 6.01375 1.39507 7.65741C1.34128 9.30107 1.91472 10.9037 2.99906 12.1401C4.08341 13.3765 5.59746 14.1541 7.23409 14.3153C8.87072 14.4764 10.5074 14.009 11.812 13.0078L15.154 16.3505C15.2325 16.429 15.3257 16.4912 15.4282 16.5337C15.5307 16.5762 15.6407 16.5981 15.7516 16.5981C15.8626 16.5981 15.9726 16.5762 16.0751 16.5337C16.1776 16.4912 16.2708 16.429 16.3493 16.3505C16.4278 16.272 16.49 16.1788 16.5325 16.0763C16.575 15.9737 16.5969 15.8638 16.5969 15.7528C16.5969 15.6418 16.575 15.5319 16.5325 15.4294C16.49 15.3268 16.4278 15.2337 16.3493 15.1552L16.3465 15.1531ZM3.09329 7.87503C3.09329 6.92938 3.3737 6.00498 3.89907 5.21871C4.42444 4.43243 5.17117 3.81961 6.04483 3.45773C6.91849 3.09585 7.87984 3.00116 8.80731 3.18565C9.73479 3.37013 10.5867 3.8255 11.2554 4.49417C11.9241 5.16284 12.3794 6.01478 12.5639 6.94225C12.7484 7.86972 12.6537 8.83107 12.2918 9.70473C11.93 10.5784 11.3171 11.3251 10.5309 11.8505C9.74459 12.3759 8.82018 12.6563 7.87454 12.6563C6.60687 12.655 5.3915 12.1508 4.49512 11.2544C3.59875 10.3581 3.09459 9.14269 3.09329 7.87503Z" fill="black"/>
</svg>
