<svg width="22" height="22" viewBox="0 0 22 22" fill="none" xmlns="http://www.w3.org/2000/svg">
<path d="M19.7364 5.01359L16.9864 2.26359C16.9226 2.19967 16.8467 2.14896 16.7633 2.11436C16.6798 2.07977 16.5903 2.06196 16.5 2.06196C16.4097 2.06196 16.3202 2.07977 16.2367 2.11436C16.1533 2.14896 16.0774 2.19967 16.0136 2.26359L7.76359 10.5136C7.69977 10.5775 7.64916 10.6533 7.61466 10.7368C7.58015 10.8202 7.56243 10.9097 7.5625 11V13.75C7.5625 13.9323 7.63493 14.1072 7.76386 14.2361C7.8928 14.3651 8.06766 14.4375 8.25 14.4375H11C11.0903 14.4376 11.1798 14.4198 11.2632 14.3853C11.3467 14.3508 11.4225 14.3002 11.4864 14.2364L19.7364 5.98641C19.8003 5.92256 19.851 5.84673 19.8856 5.76327C19.9202 5.67981 19.938 5.59035 19.938 5.5C19.938 5.40965 19.9202 5.32019 19.8856 5.23673C19.851 5.15327 19.8003 5.07744 19.7364 5.01359ZM10.7155 13.0625H8.9375V11.2845L14.4375 5.78445L16.2155 7.5625L10.7155 13.0625ZM17.1875 6.59055L15.4095 4.8125L16.5 3.72195L18.278 5.5L17.1875 6.59055ZM19.25 11V17.875C19.25 18.2397 19.1051 18.5894 18.8473 18.8473C18.5894 19.1051 18.2397 19.25 17.875 19.25H4.125C3.76033 19.25 3.41059 19.1051 3.15273 18.8473C2.89487 18.5894 2.75 18.2397 2.75 17.875V4.125C2.75 3.76033 2.89487 3.41059 3.15273 3.15273C3.41059 2.89486 3.76033 2.75 4.125 2.75H11C11.1823 2.75 11.3572 2.82243 11.4861 2.95136C11.6151 3.08029 11.6875 3.25516 11.6875 3.4375C11.6875 3.61984 11.6151 3.7947 11.4861 3.92364C11.3572 4.05257 11.1823 4.125 11 4.125H4.125V17.875H17.875V11C17.875 10.8177 17.9474 10.6428 18.0764 10.5139C18.2053 10.3849 18.3802 10.3125 18.5625 10.3125C18.7448 10.3125 18.9197 10.3849 19.0486 10.5139C19.1776 10.6428 19.25 10.8177 19.25 11Z" fill="#4167F2"/>
</svg>
